<?xml version="1.0" encoding="UTF-8"?>
<svg version="1.1" xmlns="http://www.w3.org/2000/svg" width="163" height="150">
<path d="M0 0 C1.60681641 0.66902344 1.60681641 0.66902344 3.24609375 1.3515625 C21.79390115 9.81030778 35.10985003 25.92142996 42.375 44.6875 C48.69850097 63.99376403 47.69702059 85.2042414 38.6875 103.5 C35.65676443 109.16474394 32.15969348 114.12278363 28 119 C27.08927734 120.20849609 27.08927734 120.20849609 26.16015625 121.44140625 C14.67290764 135.04746021 -3.94317629 143.65579831 -21.49951172 145.22314453 C-42.6077275 146.47729257 -62.12263669 141.70443646 -78.40527344 127.64257812 C-93.43676235 113.87773796 -103.00658146 96.04874754 -104.875 75.625 C-105.71198552 55.43272428 -100.15690168 36.22985748 -86.6875 20.8125 C-85.14207449 19.19187761 -83.57954282 17.58738824 -82 16 C-81.26265625 15.22785156 -80.5253125 14.45570312 -79.765625 13.66015625 C-59.47847671 -6.2525648 -25.72109305 -11.16254095 0 0 Z M-79.1640625 24.79296875 C-91.25096503 39.3229686 -97.49500396 57.05549668 -96 76 C-94.02429894 89.62925028 -89.47238367 101.15166526 -81 112 C-80.48953125 112.68707031 -79.9790625 113.37414062 -79.453125 114.08203125 C-70.23260468 125.65332778 -55.44516866 133.46399111 -41 136 C-21.57161045 137.67489301 -3.39962479 135.14772815 12.19921875 122.48828125 C25.07744355 111.45094626 35.52639545 96.31485351 37 79 C38.28162048 59.36105081 34.44272398 41.07709735 21.625 25.5625 C8.22896741 11.65470886 -9.15066014 3.34337976 -28.5 2.75 C-48.02145109 2.94570377 -65.81989808 10.51978023 -79.1640625 24.79296875 Z " fill="#DBB260" transform="translate(112,5)"/>
<path d="M0 0 C4.29 0 8.58 0 13 0 C13 17.82 13 35.64 13 54 C28.09364568 53.96039251 28.09364568 53.96039251 43.18725586 53.90991211 C45.07145125 53.90699308 46.95564727 53.90444449 48.83984375 53.90234375 C50.32200378 53.8946698 50.32200378 53.8946698 51.83410645 53.88684082 C52.76791138 53.88671997 53.70171631 53.88659912 54.66381836 53.88647461 C55.88626503 53.88314369 55.88626503 53.88314369 57.13340759 53.87974548 C59 54 59 54 60 55 C60 58.96 60 62.92 60 67 C40.2 67 20.4 67 0 67 C0 44.89 0 22.78 0 0 Z " fill="#DBB15E" transform="translate(52,34)"/>
<path d="M0 0 C3.96 0 7.92 0 12 0 C17.81011446 17.33417394 23.61319382 34.67104618 29.25 52.0625 C29.63212646 53.23135742 30.01425293 54.40021484 30.40795898 55.60449219 C30.75286377 56.67473633 31.09776855 57.74498047 31.453125 58.84765625 C31.75379883 59.77586182 32.05447266 60.70406738 32.36425781 61.66040039 C33 64 33 64 33 67 C28.71 67 24.42 67 20 67 C17.69 60.07 15.38 53.14 13 46 C12.67 52.93 12.34 59.86 12 67 C8.04 67 4.08 67 0 67 C0 44.89 0 22.78 0 0 Z " fill="#D8AB52" transform="translate(67,19)"/>
<path d="M0 0 C10.30987402 7.89662096 17.60476553 17.88933615 22.1328125 30.03515625 C22.45121094 30.81375 22.76960938 31.59234375 23.09765625 32.39453125 C27.74701977 45.84983211 26.76786519 63.07085202 21.1328125 76.03515625 C20.57207031 77.36546875 20.57207031 77.36546875 20 78.72265625 C12.86032761 94.23134859 0.38956885 105.43838509 -15.3046875 111.84765625 C-32.54828432 117.99449135 -49.5372017 117.03053538 -66.2109375 109.53125 C-82.15398886 101.50384914 -93.10284497 88.9181466 -98.9375 72.078125 C-104.21161942 54.81535598 -102.82121063 37.43382544 -94.8046875 21.28515625 C-85.99538715 6.11358342 -72.53315341 -4.61896187 -55.80859375 -9.9375 C-36.30568788 -15.06984365 -16.57783911 -11.36056277 0 0 Z M-84.046875 10.34375 C-95.55431852 23.91384849 -100.7228158 39.893954 -99.65234375 57.5859375 C-97.58393871 75.29542448 -89.54588696 89.64243509 -75.8671875 101.03515625 C-68.87842219 105.9113713 -61.18808111 110.03350988 -52.8671875 112.03515625 C-52.14789063 112.21691406 -51.42859375 112.39867187 -50.6875 112.5859375 C-33.38508558 115.34186223 -16.60787482 112.14782002 -2.13671875 102.1484375 C10.58818201 92.34968638 19.4162588 79.0358061 22.734375 63.15625 C24.88880653 46.27986967 22.22141113 29.31355519 11.89599609 15.36425781 C-0.35701565 0.12881474 -15.73195843 -7.54341044 -34.8671875 -9.96484375 C-53.7649488 -10.72159504 -71.07547553 -3.39477525 -84.046875 10.34375 Z " fill="#F0DFBD" transform="translate(120.8671875,22.96484375)"/>
<path d="M0 0 C4.29 0 8.58 0 13 0 C14.81579726 4.72107287 16.54049317 9.46723285 18.1875 14.25 C18.53167969 15.24515625 18.87585938 16.2403125 19.23046875 17.265625 C20 20 20 20 20 24 C16.04 24 12.08 24 8 24 C5.51302915 19.3615441 3.83123961 14.76046421 2.3125 9.75 C2.08755859 9.03070313 1.86261719 8.31140625 1.63085938 7.5703125 C0 2.27621581 0 2.27621581 0 0 Z " fill="#DCB464" transform="translate(93,103)"/>
<path d="M0 0 C3.96 0 7.92 0 12 0 C12 7.92 12 15.84 12 24 C8.04 24 4.08 24 0 24 C0 16.08 0 8.16 0 0 Z " fill="#DBB15F" transform="translate(67,103)"/>
<path d="M0 0 C0.33 0 0.66 0 1 0 C2.95383906 14.16533318 -0.18448465 24.62592909 -7 37 C-7.66 36.67 -8.32 36.34 -9 36 C-7.83514032 32.31127768 -6.49076369 28.75309525 -5 25.1875 C-1.68183736 16.92293135 -0.62853814 8.84915536 0 0 Z " fill="#F2E4C7" transform="translate(144,72)"/>
<path d="M0 0 C0.66 0.66 1.32 1.32 2 2 C1.79296875 4.06640625 1.79296875 4.06640625 1.1875 6.5625 C0.10073823 11.3793086 -0.52451046 16.08660804 -1 21 C-1.33 21 -1.66 21 -2 21 C-3.22657444 13.22676923 -2.82633445 7.36124396 0 0 Z " fill="#F3E6CD" transform="translate(23,51)"/>
<path d="M0 0 C-0.33 0.66 -0.66 1.32 -1 2 C-3.75078884 2.91692961 -5.35948913 3.10886083 -8.1875 3.0625 C-10.0746875 3.0315625 -10.0746875 3.0315625 -12 3 C-11.67 2.34 -11.34 1.68 -11 1 C-7.318488 -0.05186057 -3.80944893 -0.08859184 0 0 Z " fill="#EFDCB7" transform="translate(103,134)"/>
<path d="M0 0 C0.33 0 0.66 0 1 0 C1.22134176 2.12368444 1.42670007 4.24904024 1.625 6.375 C1.74101562 7.55835937 1.85703125 8.74171875 1.9765625 9.9609375 C1.98429687 10.96382812 1.99203125 11.96671875 2 13 C1.34 13.66 0.68 14.32 0 15 C-0.75612577 9.76528314 -1.2063366 5.22745859 0 0 Z " fill="#F5E9D2" transform="translate(21,77)"/>
<path d="M0 0 C-0.66 0.66 -1.32 1.32 -2 2 C-4.8203125 1.9765625 -4.8203125 1.9765625 -8.125 1.625 C-9.22070312 1.51414062 -10.31640625 1.40328125 -11.4453125 1.2890625 C-12.28835937 1.19367187 -13.13140625 1.09828125 -14 1 C-14 0.67 -14 0.34 -14 0 C-9.20699867 -1.39151652 -4.84864218 -0.68662689 0 0 Z " fill="#F4E7CF" transform="translate(100,13)"/>
<path d="M0 0 C0.89203125 0.10183594 1.7840625 0.20367187 2.703125 0.30859375 C3.37859375 0.39238281 4.0540625 0.47617188 4.75 0.5625 C4.75 0.8925 4.75 1.2225 4.75 1.5625 C2.79310341 1.78392255 0.83438048 1.9892568 -1.125 2.1875 C-2.76082031 2.36152344 -2.76082031 2.36152344 -4.4296875 2.5390625 C-5.82574219 2.55066406 -5.82574219 2.55066406 -7.25 2.5625 C-7.91 1.9025 -8.57 1.2425 -9.25 0.5625 C-5.98086376 -0.46865279 -3.38958652 -0.4013984 0 0 Z " fill="#F4E8CF" transform="translate(74.25,12.4375)"/>
<path d="M0 0 C0.99 0.33 1.98 0.66 3 1 C0.69 3.31 -1.62 5.62 -4 8 C-4.33 7.01 -4.66 6.02 -5 5 C-3.35 3.35 -1.7 1.7 0 0 Z " fill="#EDD8B0" transform="translate(40,27)"/>
<path d="M0 0 C0 0.66 0 1.32 0 2 C-3.3 1.67 -6.6 1.34 -10 1 C-6.1496895 -1.56687367 -4.41430237 -0.83288724 0 0 Z " fill="#F2E4C9" transform="translate(76,136)"/>
<path d="M0 0 C0.99 0.495 0.99 0.495 2 1 C2.4140625 3.06640625 2.4140625 3.06640625 2.625 5.5625 C2.69976562 6.38878906 2.77453125 7.21507812 2.8515625 8.06640625 C2.92503906 9.02353516 2.92503906 9.02353516 3 10 C2.34 9.67 1.68 9.34 1 9 C0.5859375 6.93359375 0.5859375 6.93359375 0.375 4.4375 C0.30023438 3.61121094 0.22546875 2.78492188 0.1484375 1.93359375 C0.09945312 1.29550781 0.05046875 0.65742187 0 0 Z " fill="#EDD9B2" transform="translate(141,52)"/>
<path d="M0 0 C0.66 0.99 1.32 1.98 2 3 C0.35 4.65 -1.3 6.3 -3 8 C-3 3.73173127 -2.62386487 3.06117568 0 0 Z " fill="#F2E2C4" transform="translate(34,33)"/>
<path d="M0 0 C3.16115776 1.36983503 3.9927092 1.9890638 6 5 C5.01 5.33 4.02 5.66 3 6 C1.5 4.6875 1.5 4.6875 0 3 C0 2.01 0 1.02 0 0 Z " fill="#F2E3C6" transform="translate(35,115)"/>
</svg>
