<?xml version="1.0" encoding="UTF-8"?>
<svg version="1.1" xmlns="http://www.w3.org/2000/svg" width="112" height="150">
<path d="M0 0 C5.28 0 10.56 0 16 0 C16 24.42 16 48.84 16 74 C37.12 74 58.24 74 80 74 C80 79.61 80 85.22 80 91 C53.6 91 27.2 91 0 91 C0 60.97 0 30.94 0 0 Z " fill="#D8AB53" transform="translate(20,22)"/>
<path d="M0 0 C5.28 0 10.56 0 16 0 C18.83972381 6.9000957 21.32956667 13.81598034 23.57421875 20.9296875 C23.89981277 21.95095734 24.2254068 22.97222717 24.56086731 24.02444458 C25.60654396 27.30687213 26.64713125 30.59088668 27.6875 33.875 C28.40459775 36.1303197 29.12204693 38.38552769 29.83984375 40.640625 C30.90629938 43.99130408 31.97248722 47.3420653 33.03720093 50.69329834 C35.02532331 56.94935254 37.02605642 63.20100918 39.05078125 69.4453125 C39.37679573 70.45197464 39.37679573 70.45197464 39.70939636 71.47897339 C40.67375008 74.45562457 41.64084322 77.43134201 42.61206055 80.40576172 C43.09799683 81.90647217 43.09799683 81.90647217 43.59375 83.4375 C43.86896484 84.28183594 44.14417969 85.12617187 44.42773438 85.99609375 C45 88 45 88 45 90 C39.39 90 33.78 90 28 90 C24.37 79.11 20.74 68.22 17 57 C16.67 67.89 16.34 78.78 16 90 C10.72 90 5.44 90 0 90 C0 60.3 0 30.6 0 0 Z " fill="#D7A94E" transform="translate(40,3)"/>
<path d="M0 0 C5.61 0 11.22 0 17 0 C20.3 10.23 23.6 20.46 27 31 C21.06 31 15.12 31 9 31 C7.71418586 27.06857225 6.43107842 23.13641834 5.15478516 19.2019043 C4.71984046 17.86382499 4.28332791 16.52625426 3.84521484 15.18920898 C3.21559861 13.26680931 2.59209157 11.34241216 1.96875 9.41796875 C1.59169922 8.26063232 1.21464844 7.1032959 0.82617188 5.91088867 C0 3 0 3 0 0 Z " fill="#D9AE58" transform="translate(76,116)"/>
<path d="M0 0 C5.28 0 10.56 0 16 0 C16 10.23 16 20.46 16 31 C10.72 31 5.44 31 0 31 C0 20.77 0 10.54 0 0 Z " fill="#D8AC54" transform="translate(40,116)"/>
</svg>
